#!OML:ASF E:\Steps\Project 1\Capture day 1\Session 2\Subject.ASF
:FULLY-SPECIFIED
:DEGREES
422
root 3.32042 17.9407 11.0056 -143.233 -9.72575 171.051
lowerback -15.9789 -4.38396 -5.65348
upperback 1.42103 -4.81487 0.0770349
thorax 11.042 -2.64548 2.04038
lowerneck 10.3777 -5.50745 -7.39088
upperneck 10.4791 -10.1186 9.95284
head 2.29562 -5.62998 4.2575
rclavicle -1.64991e-014 2.00773e-014
rhumerus -37.1661 -8.88028 -74.0898
rradius 45.392
rwrist -9.14439
rhand -9.01898 -54.5349
rfingers 7.12502
rthumb 16.9282 -83.8172
lclavicle -1.64991e-014 2.00773e-014
lhumerus -23.1984 -20.9039 78.2805
lradius 47.3004
lwrist 7.10723
lhand -23.9325 -14.9888
lfingers 7.12502
lthumb 2.54259 14.9758
rfemur -52.1286 3.42998 2.36955
rtibia 18.1422
rfoot -9.10972 -11.53
rtoes -15.5166
lfemur -34.0207 -13.5494 -15.9027
ltibia 47.2862
lfoot -5.86714 2.81873
ltoes -37.9178
423
root 3.34147 17.9513 10.9639 -143.202 -9.71126 171.087
lowerback -16.0789 -4.34791 -5.63141
upperback 1.34999 -4.76843 0.0776197
thorax 11.0135 -2.62126 2.03777
lowerneck 10.7796 -5.33233 -7.46176
upperneck 9.93653 -9.80606 9.93823
head 2.04611 -5.48195 4.29488
rclavicle -4.04527e-014 -2.20651e-014
rhumerus -37.049 -8.61868 -74.242
rradius 45.4188
rwrist -9.40073
rhand -9.69427 -54.5323
rfingers 7.12502
rthumb 16.278 -83.8691
lclavicle -4.04527e-014 -2.20651e-014
lhumerus -23.5683 -20.9263 78.3801
lradius 47.1199
lwrist 6.88927
lhand -24.2378 -14.7888
lfingers 7.12502
lthumb 2.24774 15.1791
rfemur -51.9065 3.73429 2.44646
rtibia 17.8991
rfoot -9.27698 -11.3909
rtoes -15.0393
lfemur -35.0725 -13.5964 -16.1186
ltibia 47.9248
lfoot -6.60174 3.08663
ltoes -37.1778
424
root 3.36485 17.9631 10.9224 -143.288 -9.75629 171.208
lowerback -16.0839 -4.26585 -5.51622
upperback 1.40298 -4.67502 0.0482235
thorax 11.0546 -2.56983 1.96407
lowerneck 9.80168 -5.5993 -7.58386
upperneck 11.3637 -10.4196 10.1718
head 2.69452 -5.78037 4.31014
rclavicle -6.09275e-014 1.86858e-014
rhumerus -36.7144 -8.62973 -74.4498
rradius 45.4989
rwrist -9.27633
rhand -9.78325 -53.9164
rfingers 7.12502
rthumb 16.1924 -83.2601
lclavicle -6.09275e-014 1.86858e-014
lhumerus -23.5595 -20.954 78.3197
lradius 46.697
lwrist 6.45348
lhand -24.4704 -14.2816
lfingers 7.12502
lthumb 2.02306 15.6886
rfemur -51.5394 4.23333 2.54374
rtibia 17.5908
rfoot -9.72099 -11.5976
rtoes -13.8142
lfemur -35.9831 -13.523 -16.2474
ltibia 48.344
lfoot -7.35329 3.33276
ltoes -35.1767
425
root 3.38768 17.9742 10.8796 -143.372 -9.82962 171.317
lowerback -16.0828 -4.11246 -5.40639
upperback 1.4678 -4.47906 -0.0625039
thorax 11.0903 -2.46815 1.83179
lowerneck 10.0755 -5.71004 -6.87154
upperneck 10.5294 -10.2888 9.71833
head 2.33961 -5.68044 4.08661
rclavicle -4.77083e-014 5.76476e-015
rhumerus -36.3728 -8.97665 -74.6924
rradius 45.571
rwrist -9.09064
rhand -9.68735 -53.7365
rfingers 7.12502
rthumb 16.2847 -83.0727
lclavicle -4.77083e-014 5.76476e-015
lhumerus -23.4735 -21.2187 78.1524
lradius 46.3203
lwrist 6.07711
lhand -24.3343 -13.9247
lfingers 7.12502
lthumb 2.15454 16.0441
rfemur -51.176 4.49847 2.82343
rtibia 17.3499
rfoot -10.0517 -11.7143
rtoes -12.8184
lfemur -36.8266 -13.4475 -16.3949
ltibia 48.5938
lfoot -8.1295 3.61964
ltoes -31.6917
426
root 3.40916 17.986 10.8383 -143.448 -9.91786 171.328
lowerback -16.0582 -4.17732 -5.45337
upperback 1.47127 -4.56223 -0.00579616
thorax 11.0963 -2.51194 1.89909
lowerneck 9.40034 -5.63343 -7.476
upperneck 11.4656 -10.4001 10.0501
head 2.77615 -5.74602 4.23651
rclavicle 2.05742e-014 -1.63003e-014
rhumerus -36.0699 -8.74479 -74.8523
rradius 45.6699
rwrist -9.08284
rhand -9.58401 -54.0588
rfingers 7.12502
rthumb 16.3842 -83.3868
lclavicle 2.05742e-014 -1.63003e-014
lhumerus -23.7393 -20.9587 78.1712
lradius 46.1002
lwrist 5.80961
lhand -24.0224 -13.9251
lfingers 7.12502
lthumb 2.4557 16.0405
rfemur -50.8618 4.58858 3.07608
rtibia 17.2717
rfoot -9.6084 -11.8035
rtoes -13.637
lfemur -37.6912 -13.5178 -16.644
ltibia 48.7205
lfoot -8.74111 4.24146
ltoes -33.845
427
root 3.43123 17.9985 10.8036 -143.507 -9.88568 171.252
lowerback -15.9356 -4.15468 -5.55642
upperback 1.46502 -4.51467 -0.0851671
thorax 11.016 -2.49321 1.89047
lowerneck 9.71906 -5.51359 -7.1812
upperneck 10.9179 -10.0921 9.81345
head 2.51122 -5.58618 4.14608
rclavicle 2.08724e-015 -1.78906e-014
rhumerus -36.0105 -8.80266 -75.0509
rradius 45.8553
rwrist -8.97739
rhand -9.27838 -53.7128
rfingers 7.12502
rthumb 16.6785 -83.0163
lclavicle 2.08724e-015 -1.78906e-014
lhumerus -23.8514 -20.9514 78.1258
lradius 45.6874
lwrist 5.70304
lhand -24.0023 -14.096
lfingers 7.12502
lthumb 2.47516 15.8694
rfemur -50.7186 4.83225 3.03351
rtibia 17.3776
rfoot -9.1725 -12.0097
rtoes -14.6791
lfemur -38.6223 -13.5288 -17.0417
ltibia 48.7709
lfoot -9.08453 4.92555
ltoes -38.1222
428
root 3.45156 18.0077 10.7692 -143.527 -9.84017 171.157
lowerback -15.9082 -4.17713 -5.697
upperback 1.47728 -4.515 -0.15239
thorax 11.0202 -2.50086 1.89632
lowerneck 9.36234 -5.50394 -7.29968
upperneck 11.3808 -10.1505 9.842
head 2.71677 -5.61389 4.14979
rclavicle 1.02374e-014 9.83984e-015
rhumerus -35.7613 -8.62787 -75.332
rradius 45.9048
rwrist -9.03919
rhand -9.28883 -53.1739
rfingers 7.12502
rthumb 16.6684 -82.4782
lclavicle 1.02374e-014 9.83984e-015
lhumerus -23.813 -20.5531 78.0587
lradius 45.0257
lwrist 5.47308
lhand -24.1572 -14.1549
lfingers 7.12502
lthumb 2.32556 15.8122
rfemur -50.6109 4.98251 3.00594
rtibia 17.4654
rfoot -9.23947 -12.0315
rtoes -14.8826
lfemur -39.5341 -13.6106 -17.4325
ltibia 48.7349
lfoot -9.579 5.07042
ltoes -36.5407
429
root 3.46804 18.0143 10.7284 -143.545 -9.92164 171.141
lowerback -16.0106 -4.25506 -5.69161
upperback 1.51108 -4.61242 -0.151364
thorax 11.1258 -2.54809 1.86012
lowerneck 9.02435 -5.52684 -7.41557
upperneck 11.7421 -10.2167 9.74968
head 2.88552 -5.64419 4.11818
rclavicle -2.78299e-015 -1.63997e-014
rhumerus -35.4402 -8.23051 -75.6434
rradius 45.9887
rwrist -9.30726
rhand -9.38273 -53.507
rfingers 7.12502
rthumb 16.578 -82.8189
lclavicle -2.78299e-015 -1.63997e-014
lhumerus -23.8616 -19.9441 78.0005
lradius 44.5225
lwrist 5.20067
lhand -23.9723 -13.987
lfingers 7.12502
lthumb 2.50407 15.978
rfemur -50.2947 5.0159 3.17655
rtibia 17.2053
rfoot -9.23281 -11.8939
rtoes -15.216
lfemur -40.3727 -13.785 -17.6863
ltibia 48.6129
lfoot -10.313 5.03288
ltoes -34.063
430
root 3.48653 18.0216 10.6888 -143.565 -10.0237 171.239
lowerback -16.0945 -4.2745 -5.63506
upperback 1.47874 -4.64722 -0.129062
thorax 11.1379 -2.56134 1.83958
lowerneck 9.09615 -5.52787 -7.31757
upperneck 11.6488 -10.1788 9.59294
head 2.83198 -5.62487 4.05988
rclavicle 3.42407e-014 -1.799e-014
rhumerus -35.4592 -7.82256 -75.8886
rradius 46.2547
rwrist -9.75461
rhand -9.1719 -53.8229
rfingers 7.12502
rthumb 16.781 -83.1177
lclavicle 3.42407e-014 -1.799e-014
lhumerus -24.1059 -19.5971 77.9913
lradius 44.2695
lwrist 4.73463
lhand -23.8367 -13.7781
lfingers 7.12502
lthumb 2.63502 16.1854
rfemur -49.9215 5.17063 3.40605
rtibia 16.7325
rfoot -9.17795 -11.9173
rtoes -15.0053
lfemur -41.2522 -13.79 -17.8049
ltibia 48.4329
lfoot -11.1359 5.03167
ltoes -34.5639
431
root 3.5093 18.0299 10.6529 -143.622 -10.1172 171.303
lowerback -16.1115 -4.26956 -5.68087
upperback 1.48263 -4.62958 -0.143676
thorax 11.1534 -2.55573 1.85257
lowerneck 8.56056 -5.5877 -7.50189
upperneck 12.4732 -10.4154 9.73114
head 3.19875 -5.7441 4.08992
rclavicle -1.05853e-014 -5.26779e-015
rhumerus -35.4579 -7.49478 -76.1571
rradius 46.3572
rwrist -10.1237
rhand -9.23381 -54.2285
rfingers 7.12502
rthumb 16.7214 -83.5284
lclavicle -1.05853e-014 -5.26779e-015
lhumerus -24.1777 -19.3065 77.9092
lradius 43.889
lwrist 3.97869
lhand -23.5888 -13.3528
lfingers 7.12502
lthumb 2.8745 16.6075
rfemur -49.5212 5.36708 3.56998
rtibia 16.2876
rfoot -9.32291 -12.1538
rtoes -14.2491
lfemur -42.1152 -13.7583 -17.9419
ltibia 48.1132
lfoot -11.8389 4.88064
ltoes -34.1202
432
root 3.52825 18.0391 10.6173 -143.747 -10.2251 171.254
lowerback -16.0342 -4.24208 -5.71975
upperback 1.5858 -4.57826 -0.238236
thorax 11.2155 -2.53316 1.78493
lowerneck 8.51442 -5.53589 -7.2053
upperneck 12.2295 -10.2167 9.47678
head 3.09053 -5.62626 3.97158
rclavicle 2.04251e-014 1.5207e-014
rhumerus -35.211 -7.4813 -76.4408
rradius 46.2346
rwrist -10.2252
rhand -9.54534 -54.8802
rfingers 7.12502
rthumb 16.4214 -84.2051
lclavicle 2.04251e-014 1.5207e-014
lhumerus -23.9549 -19.0506 77.7498
lradius 43.2987
lwrist 3.12142
lhand -23.1568 -12.683
lfingers 7.12502
lthumb 3.29169 17.2713
rfemur -49.0214 5.48652 3.63949
rtibia 15.8767
rfoot -9.4288 -12.2707
rtoes -14.0006
lfemur -42.826 -13.9245 -18.2271
ltibia 47.6351
lfoot -12.2642 4.79316
ltoes -34.079
433
root 3.54447 18.0484 10.5848 -143.838 -10.279 171.201
lowerback -15.8986 -4.19216 -5.73458
upperback 1.59596 -4.51013 -0.339245
thorax 11.1346 -2.49889 1.70927
lowerneck 8.00168 -5.57041 -7.29607
upperneck 12.9609 -10.3942 9.61985
head 3.41713 -5.71016 3.99214
rclavicle 2.40032e-014 3.67752e-015
rhumerus -35.1721 -7.58622 -76.6338
rradius 46.2129
rwrist -10.2447
rhand -9.38217 -54.4627
rfingers 7.12502
rthumb 16.5785 -83.7746
lclavicle 2.40032e-014 3.67752e-015
lhumerus -23.9067 -18.9471 77.7185
lradius 42.714
lwrist 2.95794
lhand -23.0779 -12.3532
lfingers 7.12502
lthumb 3.36788 17.6
rfemur -48.683 5.53998 3.72501
rtibia 15.6666
rfoot -9.44345 -12.1673
rtoes -13.472
lfemur -43.5159 -14.0557 -18.5526
ltibia 47.0289
lfoot -12.5309 4.80538
ltoes -35.1376
434
root 3.56225 18.0555 10.5533 -143.83 -10.3572 171.229
lowerback -15.9687 -4.19013 -5.76591
upperback 1.57497 -4.49668 -0.361272
thorax 11.1511 -2.49403 1.70257
lowerneck 8.12443 -5.53006 -7.08618
upperneck 12.7363 -10.2474 9.35348
head 3.29598 -5.63322 3.88965
rclavicle -1.28713e-014 -5.36719e-015
rhumerus -35.2065 -7.49206 -76.8255
rradius 46.1646
rwrist -10.3293
rhand -9.23459 -53.4762
rfingers 7.12502
rthumb 16.7206 -82.7761
lclavicle -1.28713e-014 -5.36719e-015
lhumerus -23.8343 -18.7616 77.8052
lradius 41.8268
lwrist 3.76691
lhand -23.2101 -12.708
lfingers 7.12502
lthumb 3.24018 17.2471
rfemur -48.4584 5.74541 3.78759
rtibia 15.4265
rfoot -9.44705 -12.3081
rtoes -12.6032
lfemur -44.3173 -14.0307 -18.7747
ltibia 46.2967
lfoot -12.7388 4.6194
ltoes -35.4194
435
root 3.57913 18.062 10.5213 -143.811 -10.4835 171.306
lowerback -16.11 -4.2214 -5.78316
upperback 1.58261 -4.527 -0.340784
thorax 11.2476 -2.51092 1.71686
lowerneck 8.20715 -5.42959 -7.03186
upperneck 12.7054 -10.1023 9.31227
head 3.25633 -5.56469 3.87641
rclavicle -3.12589e-014 5.11871e-015
rhumerus -35.1179 -7.19011 -77.0849
rradius 45.9899
rwrist -10.4285
rhand -9.58573 -53.1928
rfingers 7.12502
rthumb 16.3826 -82.5209
lclavicle -3.12589e-014 5.11871e-015
lhumerus -23.5918 -18.4032 77.8432
lradius 40.7185
lwrist 4.24547
lhand -23.2334 -13.0818
lfingers 7.12502
lthumb 3.21774 16.8736
rfemur -48.1441 5.9798 3.90811
rtibia 15.0032
rfoot -9.33121 -12.5613
rtoes -12.7289
lfemur -45.1373 -14.0863 -18.9124
ltibia 45.4769
lfoot -13.0978 4.32948
ltoes -34.8584
